<svg xmlns="http://www.w3.org/2000/svg" viewBox="0 0 24 24"><title>Kcal</title><defs><linearGradient id="bg" x1="0" y1="0" x2="1" y2="1"><stop offset="0%" stop-color="#2563eb"/><stop offset="100%" stop-color="#1e3a8a"/></linearGradient></defs><rect width="24" height="24" rx="6" fill="url(#bg)"/><path fill="#fff" d="M12 4c-1.3 2.3-3.4 3.7-3.4 6.6a3.4 3.4 0 0 0 6.8 0c0-.9-.24-1.6-.65-2.3.65.4 1.2 1.05 1.5 1.85.5 1.3.16 2.75-.65 3.9A4.7 4.7 0 0 1 12 19.5a4.7 4.7 0 0 1-4.3-6.3c.5-1.3 1.6-2.7 1.6-4.5 0-1.6.8-3.2 2.4-4.2Z"/></svg>
